<?xml version="1.0" encoding="utf-8"?>
<!-- Generator: Adobe Illustrator 19.0.0, SVG Export Plug-In . SVG Version: 6.00 Build 0)  -->
<svg version="1.1" id="Layer_1" xmlns="http://www.w3.org/2000/svg" xmlns:xlink="http://www.w3.org/1999/xlink" x="0px" y="0px"
	 viewBox="0 0 96 96" style="enable-background:new 0 0 96 96;" xml:space="preserve">
<style type="text/css">
	.st0{fill:#424242;}
	.st1{fill:#FFFFFF;}
</style>
<g id="XMLID_1_">
	<circle id="XMLID_3_" class="st0" cx="48" cy="48" r="27.5"/>
	<path id="XMLID_7_" class="st1" d="M43.8,58.6V34.2c0,0,11.6,2,13.1,6.9c1.5,4.9-0.9,8-1.7,8.1c-2.4,0.3-2.9-1.4-2.9-1.4v-7.2
		l-3.2-1v22.1L43.8,58.6z M51.3,58.3V61c0,0,11.5-3.9,13.3-5.4c1.8-1.6-4.2-5.5-7.4-4.8c0,0-2.8,0-5.9,1.4v2.7l7.3-1.8l2.8,1.3
		L51.3,58.3z M37.7,58.9c-3.5,0-6.7-1.1-6.6-3.3c0-2.2,4.8-4.5,10.6-5.5v3l-5.1,1.6c0,0-1.1,1.4,0.4,1.5c3.3,0.1,4.8-0.6,4.8-0.6
		v2.7C41.7,58.3,41.2,58.9,37.7,58.9z"/>
</g>
</svg>
