<svg id="Layer_1" data-name="Layer 1" xmlns="http://www.w3.org/2000/svg" viewBox="0 0 24 23.99"><defs><style>.cls-1{fill:#107c10;}</style></defs><title>Untitled-1</title><path class="cls-1" d="M8.7,6.65a40.72,40.72,0,0,0-4.13,5.93A22.26,22.26,0,0,0,3,15.85a5.44,5.44,0,0,0-.46,3.38v0.06a0.09,0.09,0,0,1-.07,0A12.07,12.07,0,0,1,3.56,3.44c0.58-.58,2.23.66,2.67,1A24.57,24.57,0,0,1,8.7,6.57V6.65Zm3.33,3A33.55,33.55,0,0,1,18,15.55a12.64,12.64,0,0,1,2,3.3,2.65,2.65,0,0,1,.18,1.75A3.4,3.4,0,0,1,18.74,22,12.18,12.18,0,0,1,5.26,22a3.65,3.65,0,0,1-1.41-1.28A2.42,2.42,0,0,1,4,19,12.27,12.27,0,0,1,6,15.55,33.49,33.49,0,0,1,12,9.63l0,0ZM5.7,1.81l0-.06a12.14,12.14,0,0,1,12.53,0l0,0.06H18.22c-2.08-.47-4.44.74-6.2,1.71h0c-1.69-1-4.22-2.26-6.22-1.7H5.7ZM20.07,3.35a0.77,0.77,0,0,1,.36.08,12.07,12.07,0,0,1,1.13,15.83,0.1,0.1,0,0,1-.07,0V19.23A5.33,5.33,0,0,0,21.06,16a21.66,21.66,0,0,0-1.63-3.38A43.58,43.58,0,0,0,15.3,6.64v0l0,0a23.58,23.58,0,0,1,2.1-1.88A4.88,4.88,0,0,1,20.07,3.35Z"/></svg>